<svg id="visual" viewBox="0 0 900 600" width="900" height="600" xmlns="http://www.w3.org/2000/svg" xmlns:xlink="http://www.w3.org/1999/xlink" version="1.1"><rect x="0" y="0" width="900" height="600" fill="#002233"></rect><path d="M0 493L16.7 490.2C33.3 487.3 66.7 481.7 100 489.8C133.3 498 166.7 520 200 532C233.3 544 266.7 546 300 547.8C333.3 549.7 366.7 551.3 400 551.3C433.3 551.3 466.7 549.7 500 547.8C533.3 546 566.7 544 600 534C633.3 524 666.7 506 700 494C733.3 482 766.7 476 800 475.3C833.3 474.7 866.7 479.3 883.3 481.7L900 484L900 601L883.3 601C866.7 601 833.3 601 800 601C766.7 601 733.3 601 700 601C666.7 601 633.3 601 600 601C566.7 601 533.3 601 500 601C466.7 601 433.3 601 400 601C366.7 601 333.3 601 300 601C266.7 601 233.3 601 200 601C166.7 601 133.3 601 100 601C66.7 601 33.3 601 16.7 601L0 601Z" fill="#0066FF" stroke-linecap="round" stroke-linejoin="miter"></path></svg>